<?xml version="1.0" encoding="UTF-8"?>
<svg xmlns="http://www.w3.org/2000/svg" version="1.1" xmlns:xlink="http://www.w3.org/1999/xlink" viewBox="0 0 2000 2000">
  <!-- Generator: Adobe Illustrator 29.8.4, SVG Export Plug-In . SVG Version: 2.1.1 Build 6)  -->
  <defs>
    <style>
      .st0 {
        fill: url(#Banana2);
      }

      .st1 {
        fill: url(#Banana1);
      }

      .st2 {
        fill: url(#Banana);
      }

      .st3 {
        fill: url(#linear-gradient);
      }
    </style>
    <linearGradient id="linear-gradient" x1="425.3" y1="990.7" x2="1574.7" y2="990.7" gradientUnits="userSpaceOnUse">
      <stop offset="0" stop-color="#fff9b8"/>
      <stop offset="0" stop-color="#f8c957"/>
      <stop offset="0" stop-color="#f8cd5f"/>
      <stop offset=".1" stop-color="#fad876"/>
      <stop offset=".2" stop-color="#fcea9a"/>
      <stop offset=".2" stop-color="#fff9b8"/>
      <stop offset=".3" stop-color="#fad684"/>
      <stop offset=".4" stop-color="#d3b565"/>
      <stop offset=".5" stop-color="#dab962"/>
      <stop offset=".5" stop-color="#f0c459"/>
      <stop offset=".6" stop-color="#f8c957"/>
      <stop offset=".6" stop-color="#f8c959"/>
      <stop offset=".6" stop-color="#f8cd60"/>
      <stop offset=".7" stop-color="#f9d36c"/>
      <stop offset=".7" stop-color="#fadc7d"/>
      <stop offset=".7" stop-color="#fce794"/>
      <stop offset=".7" stop-color="#fef5b0"/>
      <stop offset=".7" stop-color="#fff9b8"/>
      <stop offset=".7" stop-color="#f9eda4"/>
      <stop offset=".7" stop-color="#f1dc8a"/>
      <stop offset=".7" stop-color="#eace74"/>
      <stop offset=".7" stop-color="#e5c363"/>
      <stop offset=".8" stop-color="#e1bc57"/>
      <stop offset=".8" stop-color="#dfb850"/>
      <stop offset=".9" stop-color="#dfb74f"/>
      <stop offset="1" stop-color="#f8c957"/>
    </linearGradient>
    <linearGradient id="Banana" x1="958" y1="1210.6" x2="1530.8" y2="1210.6" gradientUnits="userSpaceOnUse">
      <stop offset="0" stop-color="#fff9b8"/>
      <stop offset="0" stop-color="#f8c957"/>
      <stop offset="0" stop-color="#f8cd5f"/>
      <stop offset=".1" stop-color="#fad876"/>
      <stop offset=".2" stop-color="#fcea9a"/>
      <stop offset=".2" stop-color="#fff9b8"/>
      <stop offset=".3" stop-color="#fad684"/>
      <stop offset=".4" stop-color="#d3b565"/>
      <stop offset=".5" stop-color="#dab962"/>
      <stop offset=".5" stop-color="#f0c459"/>
      <stop offset=".6" stop-color="#f8c957"/>
      <stop offset=".9" stop-color="#dfb74f"/>
      <stop offset=".9" stop-color="#dfb74f"/>
      <stop offset="1" stop-color="#f8c957"/>
    </linearGradient>
    <linearGradient id="Banana1" data-name="Banana" x1="901.9" y1="787.2" x2="1311.1" y2="787.2" xlink:href="#Banana"/>
    <linearGradient id="Banana2" data-name="Banana" x1="1494.9" y1="725.2" x2="1510.3" y2="725.2" xlink:href="#Banana"/>
  </defs>
  <g id="Layer_2">
    <rect width="2000" height="2000"/>
  </g>
  <g id="Layer_1">
    <g>
      <path class="st3" d="M846.2,750.1c0,11.4,0,22.8,0,34.2h-21.5c-.7-25.5-6.3-55-32.9-65.2-1.9-.7-9.1-3.2-10.5-3.2h-199.7l1,260.7c19.4,0,38.8,0,58.2,0,30.4,0,63.4,1.7,93.7.8,31.8-1,43.6-18.8,47.4-48.2.3-2.1-.9-8.8,1.5-9s.7.8,1,.8h18.1l1,157.2h-18.1c-2.1,0-1.3-7.2-1.6-9.2-2.3-17.6-7-36-24.6-43.8s-14-4.7-17.8-4.7h-158.7l-2,272.5h171.4c61.5-2.7,107.9-57.4,114.2-116.2,10.7-7.4,20.3-13.1,27.3-24.5,19.8-32.2,5.2-67.5,7.4-102,.8-12.4,4.5-24.5,6.8-36.6-36.4,28.9-44.4,79.3-63.3,119.8-22.6,48.5-66.4,90.6-124.4,77.2-36.2-8.4-64.4-51.8-45.2-86.7,9.2-16.7,34.3-13.5,34.8,5.4.2,10-6.8,14.6-2.7,28,7.3,24.2,36.9,26.8,57.3,18.8,49.3-19.2,64.2-98.4,84.8-141.8,22.4-47.2,59.3-88.4,100.3-120.4,4.7-3.7,9.7-7.8,15.1-10.3-7,17.9-8.3,37.4-5.6,56.4l3.6,14.4c0-40.7,16.5-88.6,55.2-107.4-9.8,26.9-10.3,56.9-1,84l5.4,13.7c-8.9-54.7,14.4-113.5,59.6-145.5-5.6,23.8-4.8,47.6,2.9,70.8l9.8,22.9c-12.3-59.3,8.9-118.9,56.2-156.2-.8,9.3-3.8,18.5-4.4,27.8-1.8,26.1,3,48.8,13.5,72.4,1.3,2.9,2.8,7,5,9.1-1.1-7.3-3-14.7-3.8-22.1-5.6-54.5,13-114.9,60.9-144.9,17.5-11,37-18.2,57.1-22.4-9.1,20.1-.8,44.3,14.6,58.6-8.9-20-6.3-45.1,11.3-59.5,8.8-7.2,25.7-8.6,37.1-9.8s25.8-1.5,38.6-2c-.6,8.9,2.8,15.9,8,22.8s10.2,10.4,17.4,14.3l-9.5-17.3c-3.1-10-4.5-21-1.2-31.1,2.9-9,6.5-9.3,15.1-8.1,17.3,2.4,31.8,13.7,42.1,27.2.5-3.9-1-8.2-2.4-11.7,12.5,1,24.3,5,36.1,8.8,1.8,1.7-6.1,4.3-7.2,5-4.8,3.3-9.1,8-11.4,13.5,4.8-2.2,8.9-5.3,14.1-6.9,11.8-3.6,22.8-5.2,31.8,4.9-6.3,0-14,2.4-17.6,7.8,15.5-4.2,33.5-1.8,41.2,14,2.4,4.9,2.4,12,4.7,15.8s7.7,7.3,10.3,10.2c8.7,10,17.7,20.3,22.9,32.7-4,1.7-8.3-.3-12.2-.5s-3.6,1.2-5.8,1-4.6-3-7.4-2.9c2.4,9.8,13.3,15,6.7,25.7-9,14.4-36.1,9.6-45.6-1.9-.9-1.1-4-6.2-.7-5.2s8.7,5,14.2,6.3,9.6,1.8,14.7,1.4l-16.6-6.3c-1.9-1.1-8.9-5.7-9.8-7.1-6.1-9.3,10.1,1,12.2,1.7,4.8,1.7,10.1,2.3,15.2,2.9l-12.4-5.7c-1.5-1.4-12.6-7-11.1-9s2.4.8,1.9-1c-16.2,1.5-46.4,18.8-31.6,38,10.1,13.2,35.8,10.4,49.2,4,2.2,13.9-10.6,28.7-23.7,31.6s-3.4-.4-4.9-.1c-5,.8-9.7,2.9-15.4,1.7.7-3.7,3.9-4.4,2.5-8.8s-10.3-11.7-12.3-13.2c-18-13.8-49.9-13.9-61.1,8.3-6.8-6.1-12-12.2-15.2-21-1.1-3-3.9-12-3.9-14.7v-20.5c0-.7,2.2-3.4.5-4.4-6.5,8.3-9.5,20-10.3,30.3-2.5-1.8-3.5-6.7-4.4-9.8-4.3-14.8-4.3-27-1-42,1.8-8.3,4.7-14.9,8.3-22.4-1.8-.4-2.3,1-3.4,1.9-4.2,3.5-10.6,12.1-13.4,16.9-9.6,16.7-10.5,35.6-8.6,54.4l-13.2-16.6c-11-10.3-23.6-19.5-37.6-25.4,4.5,5.1,10,9.1,14.7,14.1,20.2,21.9,32.8,50.4,32.2,80.6-3.8-4-4.9-10.2-7.6-15.3-17.6-33-50.5-54.8-86.9-60.6-3.9-.6-8-1.2-11.9-1.3l25.4,10.2c19,10.6,35.3,24.8,46,43.8,2.7,4.7,13.9,27.8,11.4,31.8s-10.2,4.6-12.2,5.8c-8.7,5.2-16.4,11.8-22.8,19.7,18-8.7,37.4-13.9,57.3-16.5,43.5-5.5,91.7-1.1,132.2,16,1.6.7,5.1,1.9,5.9,3.4-13.5-.2-26.8-.3-40.1,2.4s-6,.9-6.8,2.5c17.7-1.5,37.7.4,54.9,5.2,27.3,7.6,60.6,32.7,37.4,62.2-.2-9.7-5.4-18.3-12.7-24.4-1.1-.9-1.6-2.4-3.4-1.9,6.3,9,10.1,22.4,3.7,32.5-8.6,13.8-41.5,2.5-46.2-11.1-1-3-.6-6.5-2.4-9.3-2.8-4.5-25.7-18.5-31.3-20.5-9.1-3.2-17.3-2.4-26.7-1.4-45.7,4.9-87.6,30.3-134.4,27.2l14.9-5.1c15.1-6,29.6-13.7,41.7-24.7-28.6,10.1-71.6,22.3-98.9,4.2-26.5-17.6-34.7-58.5-35.8-88.2s.7-3.6-1-3.4c-8.6,43.3-6.8,94.1,31.2,123-23.3,16.6-48.8,28-77.1,33.2v-21c0-3.6-4.5-17.2-6.1-21.3-5.3-13.5-15.2-27.9-26.6-36.8,6.9,16.6,12,32.9,10.3,51.2s-9.4,30.6-15.1,34.7-27.7,7.6-33.5,9.5c-25.3,8-48.9,17.4-69.6,34.4-.8-.9,8.6-15,9.9-16.9,15.3-22.1,36.5-43.5,61.3-54.4.3-1.6-1.3-1-2.3-.9-21.9,2.2-55,27.5-69.5,43.8-35.6,40.2-44.4,98.3-86.4,134.3l-14.7,11.2c12.3-4.3,24.6-11.3,35.1-19.1,27.4-20.3,42-50.6,67-72.7,14.9-13.2,32.8-22.9,50.8-31.2,2.3-.8-6.6,27.8-7.3,29.8-12.9,35-38.7,62.8-69.4,82.9-24,15.7-51,26.6-73.2,45-44.5,36.9-57.6,94.4-79,145.6l-424.3.5-1.5-4c.2-5.5-.1-11.1,0-16.6,8.9.1,18.6-.3,27.2-2.6,1.6-.4,3.5-.3,4.1-2.3,30.3-4,41.3-37.4,42-64-.6-164.7,1.3-329.6-1-494.1-1.2-11.6-5.5-31.9-12.8-40.9s-30.1-19.6-41.8-20.2l-16.6-2c0-3.9-.8-15.9,0-18.6l2.9-1c1.6-.1,3.3,0,4.9,0,.4,1.5,3.6,1.5,3.9,0,97.9-1.3,202,5.3,298.8-1,1,1.5,2.7,2,4.4,2,4.4.1,11.9-1.8,16.1-2,27.1-1.7,49.5-6.3,75.8-9.6,2.8-.4,9.5-1.8,11.1-.1.2,2.1-.9,5.5,1,6.8.1,3.9,0,7.8,0,11.7.3,22-.2,44,0,65.9s-.6,4.3,1,5.4ZM1438,678.8c-3.2-7.2-24.1-23.5-31.2-20s.3,32.1,8.3,36.7c-1.3-15.7,8.6-22,22.9-16.6ZM1442.9,792.1c-20.4-23.2-23.3-57.7-9.3-84.9-30.1,23.9-27.6,69.7,9.3,84.9ZM1526.9,742.3c-3.8-14.1-19.8-31.7-34.7-33.2s-14.7-.2-21,1l3.7,2.8c2.7.3,5.4,1.4,7.7,2.8,5.3,3.1,3.5,13.8,11.7,18.7,8,4.7,15,0,21.1,1.3s10.9,7.3,11.5,6.7ZM1450.7,728.1c-.6-4.2,0-11.1,0-15.6s2.2-2.6,0-2.4c-11.7,20.7-16.5,44.1.5,63.5l11.3,9.3c-6.1-9.1-11.1-19.5-10.7-30.8,11.9,10.7,26.4,12,41,6.3-14.1.3-27.1-4.5-35.6-16.2-1.9-2.6-6-11.2-6.4-14.1Z"/>
      <path class="st2" d="M1232,1355.6c-41.1-2.6-87.5-11.7-126.6-29.1-60.9-27-111.1-71.2-147.3-126.2v-2.9c25.2-15.4,52.2-28,75.2-46.8,6.7,15.1,13.7,29.9,22.5,43.8,58,91.7,159.2,137.2,267,112.9,112.5-25.4,178.5-130.5,186.5-240.7,7.2.5,14.3-.7,21.5-1-2.9,52.2-7.9,104.5-11.8,156.7-48.7,80.2-138.8,127.2-231.4,133.4-.1-1.5-2.8-1.5-2.9,0-.3,0-.7,0-1,0-17.2.6-34.5-.4-51.8,0Z"/>
      <path class="st1" d="M1311.1,648.6l-48.8,11.2c-24.3,7-46.6,16.1-66.4,32.2s-6.2,7.3-9.4,9.1c-8.4,4.9-25.5,9-35.8,14-41.3,20-76.5,52.4-102.4,90s-17.2,30.7-19.8,33-7.1,3.1-10,4.7c-28.5,15.9-57.3,34.5-82.4,55.3s-22.1,20.8-34.2,29.8c7.7-42.6,25-83.9,48.4-120,54.2-83.9,142.7-139.9,242.3-156.2,39.6-6.5,78.6-5.9,118.5-3.1Z"/>
      <path class="st0" d="M1498.4,719.1c.4.3,4.3,6.1,6.5,7.6s3.8,1.3,5.4,2.4c-7.7,6.8-18.5-.8-14.6-10.2.9,0,1.9-.3,2.7.1Z"/>
    </g>
  </g>
</svg>